<mxfile host="app.diagrams.net" agent="Mozilla/5.0 (Windows NT 10.0; Win64; x64) AppleWebKit/537.36 (KHTML, like Gecko) Chrome/133.0.0.0 Safari/537.36 OPR/118.0.0.0 (Edition std-2)" version="27.0.9">
  <diagram name="Page-1" id="e7e014a7-5840-1c2e-5031-d8a46d1fe8dd">
    <mxGraphModel dx="1142" dy="1023" grid="1" gridSize="10" guides="1" tooltips="1" connect="1" arrows="1" fold="1" page="1" pageScale="1" pageWidth="1169" pageHeight="826" background="none" math="0" shadow="0">
      <root>
        <mxCell id="0" />
        <mxCell id="1" parent="0" />
        <mxCell id="20" value="" style="endArrow=open;strokeColor=#FF0000;endFill=1;rounded=0" parent="1" target="18" edge="1">
          <mxGeometry relative="1" as="geometry">
            <mxPoint x="620" y="460" as="sourcePoint" />
          </mxGeometry>
        </mxCell>
        <mxCell id="fThEOBbJ-QPh34AFnerh-47" style="edgeStyle=orthogonalEdgeStyle;rounded=0;orthogonalLoop=1;jettySize=auto;html=1;entryX=0;entryY=0.5;entryDx=0;entryDy=0;" edge="1" parent="1" source="fThEOBbJ-QPh34AFnerh-41" target="fThEOBbJ-QPh34AFnerh-43">
          <mxGeometry relative="1" as="geometry">
            <Array as="points">
              <mxPoint x="190" y="375" />
              <mxPoint x="190" y="255" />
            </Array>
          </mxGeometry>
        </mxCell>
        <mxCell id="fThEOBbJ-QPh34AFnerh-48" style="edgeStyle=orthogonalEdgeStyle;rounded=0;orthogonalLoop=1;jettySize=auto;html=1;exitX=0.5;exitY=0.5;exitDx=0;exitDy=0;exitPerimeter=0;" edge="1" parent="1" source="fThEOBbJ-QPh34AFnerh-41" target="fThEOBbJ-QPh34AFnerh-44">
          <mxGeometry relative="1" as="geometry">
            <Array as="points">
              <mxPoint x="190" y="375" />
              <mxPoint x="190" y="335" />
            </Array>
          </mxGeometry>
        </mxCell>
        <mxCell id="fThEOBbJ-QPh34AFnerh-49" style="edgeStyle=orthogonalEdgeStyle;rounded=0;orthogonalLoop=1;jettySize=auto;html=1;" edge="1" parent="1" source="fThEOBbJ-QPh34AFnerh-41" target="fThEOBbJ-QPh34AFnerh-45">
          <mxGeometry relative="1" as="geometry">
            <Array as="points">
              <mxPoint x="190" y="375" />
              <mxPoint x="190" y="418" />
            </Array>
          </mxGeometry>
        </mxCell>
        <mxCell id="fThEOBbJ-QPh34AFnerh-50" style="edgeStyle=orthogonalEdgeStyle;rounded=0;orthogonalLoop=1;jettySize=auto;html=1;exitX=0.5;exitY=0.5;exitDx=0;exitDy=0;exitPerimeter=0;entryX=0;entryY=0.5;entryDx=0;entryDy=0;" edge="1" parent="1" source="fThEOBbJ-QPh34AFnerh-41" target="fThEOBbJ-QPh34AFnerh-46">
          <mxGeometry relative="1" as="geometry">
            <Array as="points">
              <mxPoint x="190" y="375" />
              <mxPoint x="190" y="660" />
              <mxPoint x="225" y="660" />
            </Array>
          </mxGeometry>
        </mxCell>
        <mxCell id="fThEOBbJ-QPh34AFnerh-41" value="Actor" style="shape=umlActor;verticalLabelPosition=bottom;verticalAlign=top;html=1;outlineConnect=0;" vertex="1" parent="1">
          <mxGeometry x="120" y="345" width="30" height="60" as="geometry" />
        </mxCell>
        <mxCell id="fThEOBbJ-QPh34AFnerh-53" style="edgeStyle=orthogonalEdgeStyle;rounded=0;orthogonalLoop=1;jettySize=auto;html=1;" edge="1" parent="1" source="fThEOBbJ-QPh34AFnerh-43" target="fThEOBbJ-QPh34AFnerh-51">
          <mxGeometry relative="1" as="geometry" />
        </mxCell>
        <mxCell id="fThEOBbJ-QPh34AFnerh-43" value="Получить текущую погоду" style="" vertex="1" parent="1">
          <mxGeometry x="240" y="230" width="190" height="50" as="geometry" />
        </mxCell>
        <mxCell id="fThEOBbJ-QPh34AFnerh-59" value="" style="edgeStyle=orthogonalEdgeStyle;rounded=0;orthogonalLoop=1;jettySize=auto;html=1;" edge="1" parent="1" source="fThEOBbJ-QPh34AFnerh-44" target="fThEOBbJ-QPh34AFnerh-58">
          <mxGeometry relative="1" as="geometry" />
        </mxCell>
        <mxCell id="fThEOBbJ-QPh34AFnerh-44" value="Включить уведомления &quot;Что надеть&quot;" style="" vertex="1" parent="1">
          <mxGeometry x="225" y="310" width="220" height="50" as="geometry" />
        </mxCell>
        <mxCell id="fThEOBbJ-QPh34AFnerh-65" value="" style="edgeStyle=orthogonalEdgeStyle;rounded=0;orthogonalLoop=1;jettySize=auto;html=1;" edge="1" parent="1" source="fThEOBbJ-QPh34AFnerh-45" target="fThEOBbJ-QPh34AFnerh-64">
          <mxGeometry relative="1" as="geometry" />
        </mxCell>
        <mxCell id="fThEOBbJ-QPh34AFnerh-71" style="edgeStyle=orthogonalEdgeStyle;rounded=0;orthogonalLoop=1;jettySize=auto;html=1;entryX=0;entryY=0.5;entryDx=0;entryDy=0;" edge="1" parent="1" source="fThEOBbJ-QPh34AFnerh-45" target="fThEOBbJ-QPh34AFnerh-70">
          <mxGeometry relative="1" as="geometry" />
        </mxCell>
        <mxCell id="fThEOBbJ-QPh34AFnerh-45" value="Установить локацию" style="" vertex="1" parent="1">
          <mxGeometry x="240" y="393" width="190" height="50" as="geometry" />
        </mxCell>
        <mxCell id="fThEOBbJ-QPh34AFnerh-79" value="" style="edgeStyle=orthogonalEdgeStyle;rounded=0;orthogonalLoop=1;jettySize=auto;html=1;" edge="1" parent="1" source="fThEOBbJ-QPh34AFnerh-46" target="fThEOBbJ-QPh34AFnerh-78">
          <mxGeometry relative="1" as="geometry" />
        </mxCell>
        <mxCell id="fThEOBbJ-QPh34AFnerh-46" value="Настроить расписание уведомлений" style="" vertex="1" parent="1">
          <mxGeometry x="225" y="640" width="220" height="50" as="geometry" />
        </mxCell>
        <mxCell id="fThEOBbJ-QPh34AFnerh-55" value="" style="edgeStyle=orthogonalEdgeStyle;rounded=0;orthogonalLoop=1;jettySize=auto;html=1;" edge="1" parent="1" source="fThEOBbJ-QPh34AFnerh-51" target="fThEOBbJ-QPh34AFnerh-54">
          <mxGeometry relative="1" as="geometry" />
        </mxCell>
        <mxCell id="fThEOBbJ-QPh34AFnerh-51" value="Отправка запроса тг боту" style="" vertex="1" parent="1">
          <mxGeometry x="480" y="230" width="190" height="50" as="geometry" />
        </mxCell>
        <mxCell id="fThEOBbJ-QPh34AFnerh-57" value="" style="edgeStyle=orthogonalEdgeStyle;rounded=0;orthogonalLoop=1;jettySize=auto;html=1;" edge="1" parent="1" source="fThEOBbJ-QPh34AFnerh-54" target="fThEOBbJ-QPh34AFnerh-56">
          <mxGeometry relative="1" as="geometry" />
        </mxCell>
        <mxCell id="fThEOBbJ-QPh34AFnerh-54" value="Обработка запроса" style="whiteSpace=wrap;html=1;" vertex="1" parent="1">
          <mxGeometry x="760" y="225" width="145" height="60" as="geometry" />
        </mxCell>
        <mxCell id="fThEOBbJ-QPh34AFnerh-56" value="Отправка данных пользователью" style="whiteSpace=wrap;html=1;" vertex="1" parent="1">
          <mxGeometry x="997.5" y="225" width="120" height="60" as="geometry" />
        </mxCell>
        <mxCell id="fThEOBbJ-QPh34AFnerh-61" value="" style="edgeStyle=orthogonalEdgeStyle;rounded=0;orthogonalLoop=1;jettySize=auto;html=1;" edge="1" parent="1" source="fThEOBbJ-QPh34AFnerh-58" target="fThEOBbJ-QPh34AFnerh-60">
          <mxGeometry relative="1" as="geometry" />
        </mxCell>
        <mxCell id="fThEOBbJ-QPh34AFnerh-58" value="Отправка запроса серверу" style="whiteSpace=wrap;html=1;" vertex="1" parent="1">
          <mxGeometry x="487.5" y="305" width="175" height="60" as="geometry" />
        </mxCell>
        <mxCell id="fThEOBbJ-QPh34AFnerh-63" value="" style="edgeStyle=orthogonalEdgeStyle;rounded=0;orthogonalLoop=1;jettySize=auto;html=1;" edge="1" parent="1" source="fThEOBbJ-QPh34AFnerh-60" target="fThEOBbJ-QPh34AFnerh-62">
          <mxGeometry relative="1" as="geometry" />
        </mxCell>
        <mxCell id="fThEOBbJ-QPh34AFnerh-60" value="Обработка запроса" style="whiteSpace=wrap;html=1;" vertex="1" parent="1">
          <mxGeometry x="760" y="305" width="150" height="60" as="geometry" />
        </mxCell>
        <mxCell id="fThEOBbJ-QPh34AFnerh-62" value="Включение пользователя на уведомления &quot;что надеть&quot;" style="whiteSpace=wrap;html=1;" vertex="1" parent="1">
          <mxGeometry x="1005" y="305" width="120" height="60" as="geometry" />
        </mxCell>
        <mxCell id="fThEOBbJ-QPh34AFnerh-67" value="" style="edgeStyle=orthogonalEdgeStyle;rounded=0;orthogonalLoop=1;jettySize=auto;html=1;" edge="1" parent="1" source="fThEOBbJ-QPh34AFnerh-64" target="fThEOBbJ-QPh34AFnerh-66">
          <mxGeometry relative="1" as="geometry" />
        </mxCell>
        <mxCell id="fThEOBbJ-QPh34AFnerh-64" value="Отправка местоположения" style="whiteSpace=wrap;html=1;" vertex="1" parent="1">
          <mxGeometry x="497" y="388" width="175" height="60" as="geometry" />
        </mxCell>
        <mxCell id="fThEOBbJ-QPh34AFnerh-74" value="" style="edgeStyle=orthogonalEdgeStyle;rounded=0;orthogonalLoop=1;jettySize=auto;html=1;" edge="1" parent="1" source="fThEOBbJ-QPh34AFnerh-66" target="fThEOBbJ-QPh34AFnerh-73">
          <mxGeometry relative="1" as="geometry" />
        </mxCell>
        <mxCell id="fThEOBbJ-QPh34AFnerh-66" value="Определение местоположения пользователя" style="whiteSpace=wrap;html=1;" vertex="1" parent="1">
          <mxGeometry x="772.5" y="388" width="120" height="60" as="geometry" />
        </mxCell>
        <mxCell id="fThEOBbJ-QPh34AFnerh-77" value="" style="edgeStyle=orthogonalEdgeStyle;rounded=0;orthogonalLoop=1;jettySize=auto;html=1;" edge="1" parent="1" source="fThEOBbJ-QPh34AFnerh-70" target="fThEOBbJ-QPh34AFnerh-76">
          <mxGeometry relative="1" as="geometry" />
        </mxCell>
        <mxCell id="fThEOBbJ-QPh34AFnerh-70" value="Выбор пользователем определённой локации" style="whiteSpace=wrap;html=1;" vertex="1" parent="1">
          <mxGeometry x="497" y="480" width="175" height="60" as="geometry" />
        </mxCell>
        <mxCell id="fThEOBbJ-QPh34AFnerh-73" value="Установка местоположения" style="whiteSpace=wrap;html=1;" vertex="1" parent="1">
          <mxGeometry x="972.5" y="388" width="120" height="60" as="geometry" />
        </mxCell>
        <mxCell id="fThEOBbJ-QPh34AFnerh-76" value="Установка данной локации" style="whiteSpace=wrap;html=1;" vertex="1" parent="1">
          <mxGeometry x="779.5" y="480" width="120" height="60" as="geometry" />
        </mxCell>
        <mxCell id="fThEOBbJ-QPh34AFnerh-81" value="" style="edgeStyle=orthogonalEdgeStyle;rounded=0;orthogonalLoop=1;jettySize=auto;html=1;" edge="1" parent="1" source="fThEOBbJ-QPh34AFnerh-78" target="fThEOBbJ-QPh34AFnerh-80">
          <mxGeometry relative="1" as="geometry" />
        </mxCell>
        <mxCell id="fThEOBbJ-QPh34AFnerh-78" value="Отправка запроса" style="whiteSpace=wrap;html=1;" vertex="1" parent="1">
          <mxGeometry x="575" y="635" width="120" height="60" as="geometry" />
        </mxCell>
        <mxCell id="fThEOBbJ-QPh34AFnerh-83" value="" style="edgeStyle=orthogonalEdgeStyle;rounded=0;orthogonalLoop=1;jettySize=auto;html=1;" edge="1" parent="1" source="fThEOBbJ-QPh34AFnerh-80" target="fThEOBbJ-QPh34AFnerh-82">
          <mxGeometry relative="1" as="geometry" />
        </mxCell>
        <mxCell id="fThEOBbJ-QPh34AFnerh-80" value="Обработка запроса" style="whiteSpace=wrap;html=1;" vertex="1" parent="1">
          <mxGeometry x="775" y="635" width="120" height="60" as="geometry" />
        </mxCell>
        <mxCell id="fThEOBbJ-QPh34AFnerh-82" value="Установить для данного пользователя новые настройки отправки уведомления" style="whiteSpace=wrap;html=1;" vertex="1" parent="1">
          <mxGeometry x="972.5" y="622.5" width="120" height="85" as="geometry" />
        </mxCell>
      </root>
    </mxGraphModel>
  </diagram>
</mxfile>
